<svg width="704" height="421" viewBox="0 0 704 421" fill="none" xmlns="http://www.w3.org/2000/svg">
<rect width="400" height="233.65" rx="10" transform="matrix(0.944817 0.327599 -0.525072 0.851058 325.218 90.1855)" fill="url(#paint0_linear_1913_3)"/>
<mask id="mask0_1913_3" style="mask-type:alpha" maskUnits="userSpaceOnUse" x="202" y="90" width="501" height="330">
<rect width="399.576" height="233.65" transform="matrix(0.944817 0.327599 -0.525072 0.851058 325.218 90.1855)" fill="#ED713C"/>
</mask>
<g mask="url(#mask0_1913_3)">
<path opacity="0.1" d="M400.836 369.6C385.948 393.732 345.174 412.035 279.861 415.589C216.376 419.043 137.1 407.801 57.7407 380.285C-21.6182 352.768 -84.3806 314.761 -121.98 276.257C-160.661 236.646 -168.46 201.501 -153.571 177.369C-138.682 153.236 -97.9078 134.933 -32.5957 131.38C30.8902 127.925 110.166 139.167 189.525 166.684C268.884 194.2 331.646 232.207 369.246 270.711C407.926 310.323 415.725 345.467 400.836 369.6Z" fill="#333333" stroke="#333333" stroke-width="36"/>
<path opacity="0.1" d="M1096.55 322.868C1076.4 355.529 1029.58 379.08 963.021 386.943C897.204 394.717 816.695 386.309 737.79 358.95C658.886 331.591 598.205 291.045 563.488 248.412C528.377 205.296 521.997 163.298 542.148 130.637C562.299 97.976 609.12 74.425 675.682 66.5625C741.499 58.7879 822.007 67.1966 900.912 94.5555C979.817 121.914 1040.5 162.461 1075.22 205.094C1110.33 248.21 1116.71 290.207 1096.55 322.868Z" fill="#333333" stroke="#333333" stroke-width="36"/>
</g>
<path d="M524.094 369.151C526.315 369.921 528.624 368.739 530.376 365.9C532.114 363.082 531.805 360.987 529.602 360.223C527.394 359.458 525.071 360.635 523.325 363.455C521.576 366.29 521.87 368.374 524.094 369.151ZM524.79 368.021C523.489 367.57 523.431 366.122 524.767 363.955C526.103 361.799 527.621 360.882 528.918 361.332C530.209 361.779 530.265 363.242 528.934 365.4C527.597 367.566 526.087 368.47 524.79 368.021ZM529.437 370.829L530.955 371.355L539.771 365.3L540.486 364.141L534.126 361.936L533.434 363.057L538.291 364.741L538.252 364.804L529.437 370.829ZM546.053 365.578L544.798 365.143L535.297 374.443L536.552 374.878L546.053 365.578ZM541.63 375.057L547.962 377.252L548.654 376.131L544.323 374.629L544.362 374.566L547.386 373.426C550.137 372.433 551.112 371.842 551.71 370.873C552.568 369.481 551.967 367.978 550.154 367.349C548.355 366.726 546.393 367.319 545.416 368.901L546.802 369.382C547.372 368.449 548.415 368.071 549.453 368.431C550.43 368.77 550.838 369.569 550.305 370.432C549.833 371.198 548.986 371.572 547.344 372.2L542.215 374.109L541.63 375.057ZM553.028 379.152C555.028 379.866 557.166 379.026 558.187 377.361C559.215 375.704 558.61 374.051 556.942 373.473C555.928 373.121 554.778 373.257 553.833 373.818L553.763 373.793C554.981 371.827 556.528 370.946 557.937 371.435C558.863 371.756 559.132 372.465 558.885 373.253L560.318 373.75C560.943 372.302 560.361 370.889 558.642 370.292C556.406 369.517 553.944 370.764 552.085 373.777C550.112 376.965 551.326 378.547 553.028 379.152ZM553.702 378.051C552.584 377.663 552.289 376.533 552.889 375.56C553.491 374.593 554.868 374.043 555.977 374.427C557.076 374.809 557.391 375.888 556.767 376.89C556.14 377.915 554.801 378.432 553.702 378.051Z" fill="white"/>
<path d="M302.807 289.149L308.876 291.254L309.45 290.323L304.978 288.772L305.02 288.705L308.465 287.372C311.103 286.35 312.051 285.775 312.643 284.815C313.468 283.478 312.924 281.994 311.233 281.408C309.546 280.823 307.627 281.411 306.687 282.934L307.796 283.319C308.404 282.333 309.518 281.923 310.631 282.309C311.674 282.67 312.117 283.523 311.554 284.437C311.06 285.236 310.173 285.648 308.384 286.358L303.277 288.388L302.807 289.149ZM311.48 289.999L316.008 291.569L314.912 293.347L316.02 293.731L317.117 291.954L318.432 292.41L319.006 291.479L317.691 291.023L321.367 285.066L319.957 284.577L312.013 289.136L311.48 289.999ZM316.583 290.639L313.313 289.505L313.355 289.437L319.358 285.992L319.433 286.018L316.583 290.639ZM322.217 296.023C324.149 296.719 326.231 295.838 327.226 294.226C328.26 292.551 327.625 290.872 325.976 290.3C324.985 289.957 323.866 290.098 322.899 290.63L322.823 290.604C324.131 288.495 325.796 287.588 327.285 288.104C328.3 288.456 328.556 289.243 328.291 290.096L329.437 290.494C330.033 289.067 329.476 287.733 327.86 287.173C325.694 286.422 323.3 287.688 321.41 290.751C319.434 293.954 320.649 295.459 322.217 296.023ZM322.791 295.092C321.584 294.674 321.273 293.441 321.917 292.406C322.561 291.371 324.058 290.765 325.251 291.179C326.43 291.588 326.762 292.761 326.099 293.835C325.42 294.936 323.97 295.501 322.791 295.092ZM330.358 298.846C332.28 299.512 334.242 298.965 335.121 297.56C335.788 296.46 335.549 295.248 334.618 294.714L334.65 294.664C335.682 294.765 336.765 294.175 337.343 293.255C338.148 291.932 337.523 290.524 335.851 289.944C334.16 289.358 332.324 289.913 331.518 291.236C330.94 292.155 331.041 293.156 331.831 293.686L331.8 293.737C330.636 293.544 329.249 294.193 328.582 295.292C327.704 296.698 328.419 298.174 330.358 298.846ZM330.933 297.915C329.613 297.458 329.176 296.567 329.76 295.639C330.353 294.658 331.681 294.271 332.917 294.7C334.133 295.122 334.6 296.131 334.006 297.111C333.422 298.039 332.234 298.367 330.933 297.915ZM333.47 293.803C332.418 293.438 332.041 292.588 332.604 291.694C333.138 290.811 334.207 290.483 335.287 290.858C336.349 291.226 336.708 292.049 336.174 292.932C335.611 293.826 334.504 294.161 333.47 293.803Z" fill="white"/>
<circle r="2.53967" transform="matrix(0.944817 0.327599 -0.525072 0.851058 280.753 277.928)" fill="white"/>
<circle r="2.53967" transform="matrix(0.944817 0.327599 -0.525072 0.851058 256.757 269.608)" fill="white"/>
<circle r="2.53967" transform="matrix(0.944817 0.327599 -0.525072 0.851058 268.755 273.768)" fill="white"/>
<circle r="2.53967" transform="matrix(0.944817 0.327599 -0.525072 0.851058 244.76 265.448)" fill="white"/>
<path opacity="0.75" d="M265.274 242.734C265.972 241.048 265.164 239.641 263.42 239.036C261.286 238.296 258.824 239.19 257.358 241.566C255.893 243.941 256.571 245.924 258.712 246.667C260.524 247.295 262.48 246.732 263.656 245.356L262.402 244.917C261.602 245.793 260.394 246.008 259.351 245.647C257.938 245.157 257.473 243.811 258.594 241.994C259.706 240.192 261.38 239.57 262.801 240.063C263.852 240.428 264.405 241.266 264.017 242.299L265.274 242.734ZM265.297 248.976C266.32 249.331 267.184 249.063 267.671 248.725L267.719 248.742L267.249 249.503L268.425 249.911L270.707 246.212C271.707 244.591 270.489 243.777 269.507 243.436C268.388 243.048 267.106 243.097 266.077 243.973L267.065 244.597C267.486 244.263 268.172 244.039 268.982 244.319C269.759 244.589 269.931 245.093 269.542 245.724L269.526 245.75C269.282 246.145 268.836 245.981 267.653 245.712C266.405 245.429 265.035 245.289 264.255 246.554C263.579 247.65 264.121 248.569 265.297 248.976ZM266.096 248.197C265.415 247.961 265.094 247.515 265.425 246.978C265.783 246.398 266.483 246.389 267.231 246.547C267.65 246.636 268.634 246.862 268.904 246.766L268.461 247.485C268.053 248.145 267.098 248.544 266.096 248.197ZM270.028 250.467L271.232 250.884L273.331 247.483C273.781 246.754 274.729 246.444 275.583 246.74C275.832 246.827 276.09 246.964 276.171 247.023L276.811 245.986C276.699 245.93 276.468 245.836 276.315 245.783C275.59 245.532 274.742 245.687 274.147 246.207L274.083 246.185L274.629 245.3L273.465 244.897L270.028 250.467ZM281.069 247.533L279.8 247.093L280.624 245.759L279.42 245.341L278.597 246.676L277.691 246.362L277.154 247.232L278.06 247.546L276.03 250.836C275.402 251.846 275.957 252.633 276.919 252.944C277.303 253.073 277.601 253.097 277.771 253.099L278.107 252.128C278.017 252.114 277.848 252.095 277.655 252.028C277.264 251.893 276.986 251.656 277.373 251.028L279.263 247.964L280.532 248.403L281.069 247.533ZM280.687 254.313C281.71 254.667 282.574 254.399 283.061 254.061L283.109 254.078L282.639 254.84L283.815 255.247L286.097 251.548C287.098 249.927 285.879 249.113 284.897 248.772C283.778 248.384 282.496 248.433 281.467 249.309L282.455 249.933C282.877 249.599 283.562 249.375 284.372 249.656C285.149 249.925 285.321 250.429 284.932 251.06L284.916 251.086C284.672 251.481 284.226 251.318 283.043 251.048C281.795 250.765 280.426 250.625 279.645 251.891C278.969 252.986 279.512 253.905 280.687 254.313ZM281.486 253.533C280.805 253.297 280.484 252.851 280.815 252.314C281.173 251.734 281.873 251.725 282.621 251.884C283.04 251.972 284.025 252.199 284.294 252.103L283.851 252.821C283.444 253.481 282.488 253.88 281.486 253.533ZM284.121 247.772C284.316 247.457 284.675 247.295 284.972 247.398C285.544 247.597 285.377 248.137 286.138 248.401C286.845 248.642 287.694 248.342 288.193 247.533L287.429 247.211C287.23 247.525 286.869 247.691 286.559 247.583C286.02 247.396 286.048 246.812 285.392 246.584C284.683 246.338 283.82 246.669 283.325 247.47L284.121 247.772ZM287.954 256.819C289.697 257.423 291.546 256.669 292.609 254.946C293.679 253.213 293.248 251.668 291.505 251.063C289.762 250.459 287.913 251.214 286.843 252.947C285.781 254.67 286.211 256.215 287.954 256.819ZM288.52 255.91C287.38 255.515 287.402 254.435 288.062 253.365C288.719 252.299 289.81 251.576 290.95 251.972C292.081 252.364 292.053 253.455 291.395 254.521C290.735 255.591 289.651 256.302 288.52 255.91ZM297.498 260.124C298.626 260.515 299.451 260.048 299.888 259.768L299.989 259.803L299.454 260.67L300.63 261.078L305.212 253.65L304.008 253.233L302.305 255.993L302.233 255.967C302.228 255.548 302.207 254.774 301.055 254.375C299.562 253.857 297.807 254.538 296.692 256.345C295.58 258.147 295.997 259.603 297.498 260.124ZM298.335 259.291C297.26 258.919 297.226 257.872 297.915 256.755C298.598 255.649 299.658 255.008 300.745 255.385C301.795 255.75 301.883 256.718 301.164 257.882C300.442 259.053 299.374 259.651 298.335 259.291ZM304.944 262.71C306.292 263.178 307.616 262.91 308.449 262.098L307.424 261.518C306.882 261.969 306.193 262.056 305.508 261.818C304.478 261.461 304.157 260.619 304.787 259.534L309.183 261.059L309.421 260.674C310.662 258.661 309.811 257.411 308.41 256.925C306.687 256.328 304.822 257.116 303.766 258.828C302.699 260.558 303.12 262.077 304.944 262.71ZM305.292 258.723C305.828 257.949 306.887 257.484 307.866 257.824C308.8 258.147 309.027 258.983 308.505 259.837L305.292 258.723ZM314.538 266.037C316 266.543 317.434 266.081 318.236 265.042L317.064 264.636C316.539 265.185 315.801 265.361 315.112 265.122C314.094 264.769 313.91 263.776 314.659 262.561C315.395 261.368 316.527 260.849 317.533 261.198C318.298 261.463 318.497 262.06 318.303 262.627L319.475 263.033C320.04 261.864 319.482 260.764 318.077 260.277C316.334 259.672 314.477 260.464 313.428 262.165C312.392 263.844 312.742 265.414 314.538 266.037ZM318.435 267.251L319.639 267.669L321.738 264.267C322.188 263.538 323.136 263.229 323.99 263.525C324.24 263.611 324.497 263.749 324.578 263.808L325.218 262.77C325.106 262.714 324.875 262.621 324.722 262.568C323.997 262.316 323.149 262.471 322.554 262.992L322.49 262.969L323.036 262.084L321.872 261.681L318.435 267.251ZM325.161 269.72C326.51 270.188 327.834 269.92 328.667 269.108L327.641 268.528C327.1 268.979 326.411 269.066 325.726 268.828C324.695 268.471 324.374 267.629 325.004 266.544L329.401 268.069L329.638 267.684C330.88 265.671 330.029 264.421 328.628 263.935C326.905 263.338 325.04 264.126 323.984 265.838C322.916 267.568 323.337 269.088 325.161 269.72ZM325.51 265.733C326.046 264.959 327.105 264.494 328.083 264.834C329.017 265.158 329.244 265.994 328.723 266.847L325.51 265.733ZM328.498 263.076L329.46 263.409L331.74 262.17L330.472 261.731L328.498 263.076ZM331.468 271.902C332.595 272.293 333.42 271.826 333.857 271.546L333.958 271.581L333.423 272.448L334.599 272.856L339.181 265.428L337.977 265.011L336.275 267.771L336.202 267.746C336.197 267.326 336.176 266.552 335.024 266.153C333.531 265.635 331.776 266.317 330.662 268.123C329.55 269.925 329.966 271.381 331.468 271.902ZM332.304 271.069C331.229 270.697 331.195 269.65 331.884 268.533C332.567 267.427 333.627 266.787 334.714 267.164C335.765 267.528 335.852 268.496 335.133 269.66C334.411 270.831 333.343 271.43 332.304 271.069ZM336.317 273.451L337.521 273.869L340.958 268.298L339.754 267.881L336.317 273.451ZM340.892 267.232C341.307 267.376 341.832 267.206 342.051 266.85C342.27 266.495 342.105 266.081 341.691 265.937C341.272 265.792 340.749 265.967 340.529 266.323C340.31 266.678 340.473 267.087 340.892 267.232ZM345.464 269.861L344.196 269.421L345.019 268.086L343.815 267.669L342.992 269.004L342.086 268.69L341.549 269.56L342.455 269.874L340.425 273.163C339.797 274.174 340.353 274.961 341.314 275.272C341.699 275.401 341.997 275.425 342.167 275.427L342.502 274.456C342.412 274.442 342.243 274.423 342.05 274.356C341.659 274.221 341.381 273.983 341.768 273.356L343.659 270.291L344.927 270.731L345.464 269.861ZM345.828 276.886C347.571 277.49 349.42 276.736 350.483 275.013C351.552 273.279 351.122 271.735 349.379 271.13C347.635 270.526 345.787 271.28 344.717 273.014C343.654 274.737 344.085 276.281 345.828 276.886ZM346.393 275.977C345.254 275.582 345.275 274.502 345.935 273.432C346.593 272.366 347.684 271.643 348.823 272.038C349.955 272.431 349.927 273.521 349.269 274.588C348.609 275.658 347.525 276.369 346.393 275.977Z" fill="white"/>
<path d="M615.256 220.043L629.854 225.105L615.277 248.732L600.679 243.67L615.256 220.043Z" fill="#FF8AA2"/>
<path d="M608.894 232.178C611.856 227.378 616.985 223.988 622.531 222.566C620.941 219.582 618.119 217.134 614.227 215.785C605.004 212.587 593.397 216.721 588.272 225.028C583.147 233.335 586.461 242.642 595.683 245.84C599.576 247.19 603.891 247.217 607.954 246.193C605.782 242.146 605.932 236.979 608.894 232.178Z" fill="#FD6887"/>
<path d="M642.26 243.747C637.135 252.054 625.528 256.188 616.305 252.99C612.413 251.641 609.591 249.193 608.001 246.209C613.593 244.804 618.676 241.397 621.638 236.597C624.6 231.797 624.724 226.671 622.578 222.582C626.64 221.558 630.956 221.585 634.848 222.935C644.071 226.133 647.36 235.482 642.26 243.747L642.26 243.747Z" fill="#FD6887"/>
<rect width="401" height="30" transform="matrix(0.944817 0.327599 -0.525072 0.851058 283.146 157.325)" fill="#F7F8FD"/>
<rect width="400" height="233.651" rx="10" transform="matrix(0.938191 -0.346117 0.22937 0.973339 0 138.447)" fill="url(#paint1_linear_1913_3)"/>
<mask id="mask1_1913_3" style="mask-type:alpha" maskUnits="userSpaceOnUse" x="0" y="0" width="429" height="366">
<rect width="400" height="233.651" transform="matrix(0.938191 -0.346117 0.22937 0.973339 0 138.447)" fill="#ED713C"/>
</mask>
<g mask="url(#mask1_1913_3)">
<ellipse opacity="0.1" rx="203.81" ry="143.492" transform="matrix(0.938191 -0.346117 0.22937 0.973339 91.2274 390.944)" fill="#333333"/>
<ellipse opacity="0.08" rx="203.81" ry="143.492" transform="matrix(0.938191 -0.346117 0.22937 0.973339 337.642 -25.0755)" fill="#333333"/>
</g>
<path d="M350.056 220.437C352.262 219.623 353.114 217.278 352.349 214.031C351.589 210.809 349.837 209.419 347.65 210.226C345.458 211.035 344.592 213.385 345.348 216.614C346.112 219.856 347.844 221.248 350.056 220.437ZM349.751 219.145C348.459 219.621 347.363 218.564 346.78 216.086C346.203 213.616 346.661 211.969 347.949 211.494C349.231 211.021 350.335 212.092 350.917 214.56C351.501 217.037 351.039 218.67 349.751 219.145ZM355.704 218.174L357.211 217.618L359.344 207.501L359.031 206.175L352.716 208.505L353.018 209.787L357.841 208.008L357.858 208.08L355.704 218.174ZM364.67 203.59L363.425 204.049L363.142 217.05L364.388 216.591L364.67 203.59ZM368.75 213.361L375.037 211.042L374.735 209.759L370.435 211.346L370.418 211.273L371.83 208.512C373.147 206.032 373.44 204.972 373.179 203.864C372.804 202.272 371.266 201.514 369.466 202.178C367.679 202.837 366.656 204.519 367.083 206.329L368.459 205.821C368.203 204.758 368.701 203.817 369.732 203.437C370.702 203.079 371.585 203.426 371.818 204.414C372.024 205.29 371.669 206.104 370.908 207.61L368.494 212.277L368.75 213.361ZM380.641 209.122C382.642 208.405 383.616 206.425 383.163 204.525C382.72 202.627 381.071 201.757 379.415 202.368C378.407 202.74 377.654 203.565 377.361 204.583L377.291 204.609C376.766 202.357 377.272 200.718 378.671 200.202C379.59 199.863 380.305 200.23 380.695 200.981L382.118 200.456C381.529 198.969 380.07 198.266 378.363 198.896C376.143 199.715 375.224 202.205 376.036 205.65C376.891 209.301 378.94 209.734 380.641 209.122ZM380.34 207.865C379.23 208.275 378.19 207.606 377.928 206.493C377.672 205.384 378.292 204.103 379.393 203.696C380.485 203.294 381.502 203.912 381.768 205.061C382.049 206.23 381.431 207.463 380.34 207.865Z" fill="white"/>
<path opacity="0.9" d="M85.6128 317.963C87.721 317.186 88.497 314.885 87.7341 311.648C86.9769 308.434 85.3031 307.011 83.2135 307.782C81.1239 308.553 80.335 310.885 81.0922 314.098C81.855 317.335 83.5045 318.741 85.6128 317.963ZM85.3619 316.899C83.9719 317.412 82.8194 316.264 82.2116 313.685C81.6049 311.111 82.0792 309.337 83.4598 308.827C84.8405 308.318 86.008 309.486 86.6147 312.061C87.2225 314.64 86.7519 316.386 85.3619 316.899ZM94.291 314.762C96.3993 313.984 97.1753 311.683 96.4124 308.446C95.6552 305.233 93.9814 303.81 91.8918 304.58C89.8022 305.351 89.0132 307.683 89.7704 310.896C90.5333 314.134 92.1828 315.54 94.291 314.762ZM94.0402 313.697C92.6502 314.21 91.4977 313.063 90.8899 310.483C90.2832 307.909 90.7575 306.135 92.1381 305.626C93.5187 305.116 94.6863 306.285 95.293 308.859C95.9008 311.438 95.4301 313.184 94.0402 313.697ZM102.969 311.56C105.078 310.782 105.854 308.482 105.091 305.244C104.333 302.031 102.66 300.608 100.57 301.379C98.4804 302.15 97.6915 304.482 98.4487 307.695C99.2116 310.932 100.861 312.338 102.969 311.56ZM102.718 310.496C101.328 311.008 100.176 309.861 99.5681 307.282C98.9615 304.707 99.4357 302.933 100.816 302.424C102.197 301.915 103.365 303.083 103.971 305.657C104.579 308.237 104.108 309.983 102.718 310.496ZM111.648 308.359C113.756 307.581 114.532 305.28 113.769 302.043C113.012 298.83 111.338 297.406 109.248 298.177C107.159 298.948 106.37 301.28 107.127 304.493C107.89 307.73 109.539 309.136 111.648 308.359ZM111.397 307.294C110.007 307.807 108.854 306.659 108.246 304.08C107.64 301.506 108.114 299.732 109.495 299.223C110.875 298.713 112.043 299.881 112.65 302.456C113.257 305.035 112.787 306.781 111.397 307.294ZM124.489 303.621C126.597 302.843 127.373 300.543 126.61 297.305C125.853 294.092 124.179 292.669 122.09 293.44C120 294.211 119.211 296.543 119.968 299.756C120.731 302.993 122.381 304.399 124.489 303.621ZM124.238 302.557C122.848 303.069 121.696 301.922 121.088 299.343C120.481 296.768 120.955 294.994 122.336 294.485C123.717 293.976 124.884 295.144 125.491 297.718C126.099 300.297 125.628 302.044 124.238 302.557ZM133.167 300.42C135.276 299.642 136.052 297.341 135.289 294.104C134.532 290.891 132.858 289.467 130.768 290.238C128.678 291.009 127.89 293.341 128.647 296.554C129.41 299.791 131.059 301.197 133.167 300.42ZM132.916 299.355C131.527 299.868 130.374 298.72 129.766 296.141C129.16 293.567 129.634 291.793 131.014 291.283C132.395 290.774 133.563 291.942 134.169 294.517C134.777 297.096 134.306 298.842 132.916 299.355ZM141.846 297.218C143.954 296.44 144.73 294.139 143.967 290.902C143.21 287.689 141.536 286.266 139.446 287.037C137.357 287.808 136.568 290.139 137.325 293.352C138.088 296.59 139.737 297.996 141.846 297.218ZM141.595 296.153C140.205 296.666 139.052 295.519 138.444 292.94C137.838 290.365 138.312 288.591 139.693 288.082C141.073 287.573 142.241 288.741 142.848 291.315C143.455 293.894 142.985 295.641 141.595 296.153ZM150.524 294.016C152.632 293.239 153.408 290.938 152.645 287.701C151.888 284.487 150.214 283.064 148.125 283.835C146.035 284.606 145.246 286.938 146.003 290.151C146.766 293.388 148.416 294.794 150.524 294.016ZM150.273 292.952C148.883 293.465 147.731 292.317 147.123 289.738C146.516 287.164 146.99 285.39 148.371 284.88C149.752 284.371 150.919 285.539 151.526 288.114C152.134 290.693 151.663 292.439 150.273 292.952ZM163.365 289.279C165.474 288.501 166.25 286.2 165.487 282.963C164.73 279.75 163.056 278.327 160.966 279.098C158.877 279.868 158.088 282.2 158.845 285.413C159.608 288.651 161.257 290.057 163.365 289.279ZM163.115 288.214C161.725 288.727 160.572 287.58 159.964 285C159.358 282.426 159.832 280.652 161.212 280.143C162.593 279.633 163.761 280.802 164.367 283.376C164.975 285.955 164.504 287.702 163.115 288.214ZM172.044 286.077C174.152 285.3 174.928 282.999 174.165 279.761C173.408 276.548 171.734 275.125 169.644 275.896C167.555 276.667 166.766 278.999 167.523 282.212C168.286 285.449 169.935 286.855 172.044 286.077ZM171.793 285.013C170.403 285.526 169.25 284.378 168.642 281.799C168.036 279.224 168.51 277.451 169.891 276.941C171.271 276.432 172.439 277.6 173.046 280.174C173.653 282.754 173.183 284.5 171.793 285.013ZM180.722 282.876C182.83 282.098 183.606 279.797 182.843 276.56C182.086 273.347 180.412 271.924 178.323 272.694C176.233 273.465 175.444 275.797 176.201 279.01C176.964 282.248 178.614 283.654 180.722 282.876ZM180.471 281.811C179.081 282.324 177.929 281.176 177.321 278.597C176.714 276.023 177.188 274.249 178.569 273.74C179.95 273.23 181.117 274.399 181.724 276.973C182.332 279.552 181.861 281.298 180.471 281.811ZM189.4 279.674C191.508 278.896 192.284 276.596 191.522 273.358C190.764 270.145 189.091 268.722 187.001 269.493C184.911 270.264 184.122 272.596 184.88 275.809C185.642 279.046 187.292 280.452 189.4 279.674ZM189.149 278.61C187.759 279.122 186.607 277.975 185.999 275.396C185.392 272.821 185.867 271.047 187.247 270.538C188.628 270.029 189.795 271.197 190.402 273.771C191.01 276.351 190.539 278.097 189.149 278.61ZM202.242 274.937C204.35 274.159 205.126 271.858 204.363 268.621C203.606 265.408 201.932 263.984 199.842 264.755C197.753 265.526 196.964 267.858 197.721 271.071C198.484 274.309 200.133 275.714 202.242 274.937ZM201.991 273.872C200.601 274.385 199.448 273.237 198.841 270.658C198.234 268.084 198.708 266.31 200.089 265.801C201.469 265.291 202.637 266.459 203.244 269.034C203.851 271.613 203.381 273.359 201.991 273.872ZM210.92 271.735C213.028 270.957 213.804 268.657 213.041 265.419C212.284 262.206 210.61 260.783 208.521 261.554C206.431 262.325 205.642 264.656 206.399 267.87C207.162 271.107 208.812 272.513 210.92 271.735ZM210.669 270.671C209.279 271.183 208.127 270.036 207.519 267.457C206.912 264.882 207.386 263.108 208.767 262.599C210.148 262.09 211.315 263.258 211.922 265.832C212.53 268.411 212.059 270.158 210.669 270.671ZM219.598 268.534C221.706 267.756 222.482 265.455 221.72 262.218C220.962 259.005 219.289 257.581 217.199 258.352C215.109 259.123 214.32 261.455 215.078 264.668C215.84 267.905 217.49 269.311 219.598 268.534ZM219.347 267.469C217.957 267.982 216.805 266.834 216.197 264.255C215.59 261.681 216.065 259.907 217.445 259.397C218.826 258.888 219.993 260.056 220.6 262.631C221.208 265.21 220.737 266.956 219.347 267.469ZM228.276 265.332C230.385 264.554 231.161 262.253 230.398 259.016C229.641 255.803 227.967 254.38 225.877 255.151C223.788 255.921 222.999 258.253 223.756 261.466C224.519 264.704 226.168 266.11 228.276 265.332ZM228.026 264.267C226.636 264.78 225.483 263.633 224.875 261.053C224.269 258.479 224.743 256.705 226.124 256.196C227.504 255.686 228.672 256.855 229.278 259.429C229.886 262.008 229.416 263.755 228.026 264.267Z" fill="white"/>
<path d="M313.631 60.324L328.126 54.9763L334.494 81.9981L319.998 87.3458L313.631 60.324Z" fill="#FF5F00"/>
<path d="M313.402 104.563L312.727 101.698C312.469 100.6 311.655 100.122 310.551 100.529C309.999 100.733 309.446 101.145 309.178 101.918C308.732 101.512 308.204 101.395 307.514 101.65C307.054 101.82 306.627 102.132 306.383 102.794L306.248 102.221L305.281 102.577L306.361 107.16L307.328 106.804L306.732 104.273C306.54 103.462 306.865 102.927 307.509 102.689C308.153 102.452 308.577 102.763 308.757 103.526L309.353 106.057L310.319 105.7L309.723 103.17C309.532 102.358 309.902 101.807 310.5 101.586C311.144 101.348 311.567 101.659 311.747 102.423L312.344 104.953L313.402 104.563ZM326.634 94.7L325.069 95.2771L324.743 93.8927L323.777 94.2492L324.103 95.6336L323.228 95.9562L323.442 96.8631L324.316 96.5406L324.811 98.6414C325.059 99.6919 325.619 100.16 326.724 99.752C327.138 99.5992 327.564 99.2864 327.842 98.9766L327.363 98.219C327.132 98.5118 326.821 98.6784 326.591 98.7634C326.131 98.9331 325.879 98.7146 325.767 98.237L325.283 96.184L326.847 95.6069L326.634 94.7ZM334.802 91.5824C334.25 91.7861 333.95 92.2085 333.809 92.6753L333.674 92.1025L332.708 92.459L333.788 97.0421L334.754 96.6856L334.147 94.1076C333.967 93.3438 334.188 92.7953 334.786 92.5746C334.97 92.5067 335.211 92.4696 335.407 92.4494L335.458 91.3928C335.262 91.4129 334.986 91.5147 334.802 91.5826L334.802 91.5824ZM322.536 96.6267C321.997 96.4623 321.319 96.5568 320.629 96.8115C319.525 97.2189 318.923 98.0633 319.137 98.9704C319.317 99.7344 319.97 99.9602 320.971 99.747L321.442 99.6251C321.971 99.5336 322.281 99.5751 322.337 99.8139C322.416 100.148 322.104 100.523 321.459 100.76C320.815 100.998 320.253 100.946 319.874 100.826L319.594 101.76C320.19 101.955 320.926 101.891 321.616 101.637C322.904 101.161 323.494 100.269 323.292 99.4095C323.101 98.5979 322.401 98.3889 321.447 98.5854L320.976 98.7073C320.55 98.8122 320.206 98.8358 320.138 98.5493C320.059 98.2151 320.336 97.9053 320.843 97.7186C321.395 97.5148 322.003 97.5497 322.313 97.5912L322.536 96.6267ZM348.102 86.6763C347.549 86.8801 347.249 87.3023 347.108 87.7691L346.973 87.1962L346.007 87.5527L347.087 92.1359L348.053 91.7794L347.446 89.2014C347.266 88.4376 347.487 87.889 348.085 87.6684C348.269 87.6004 348.511 87.5633 348.706 87.543L348.757 86.4865C348.562 86.5065 348.286 86.6084 348.102 86.6763ZM336.331 93.6131C336.657 94.9976 337.814 95.6607 339.241 95.1343C339.885 94.8967 340.311 94.5838 340.681 94.0322L340.03 93.3903C339.729 93.8125 339.395 94.0914 338.981 94.2442C338.198 94.5328 337.511 94.1637 337.298 93.2566C337.095 92.3974 337.512 91.6206 338.283 91.2844C338.698 91.1316 339.099 91.1389 339.535 91.2897L339.804 90.3083C339.254 90.096 338.76 90.1226 338.116 90.3603C336.689 90.8866 336.005 92.2287 336.331 93.6131ZM345.259 90.3196L344.719 88.028L343.752 88.3846L343.887 88.9574C343.464 88.6467 342.947 88.5777 342.349 88.7984C341.107 89.2568 340.377 90.6158 340.703 92.0003C341.029 93.3848 342.232 94.0308 343.474 93.5725C344.118 93.3348 344.523 92.9264 344.697 92.3948L344.832 92.9677L345.799 92.6112L345.259 90.3196ZM341.715 91.6269C341.524 90.8152 341.873 89.9602 342.701 89.6546C343.483 89.366 344.182 89.7829 344.384 90.6422C344.576 91.4538 344.181 92.3259 343.398 92.6145C342.559 92.8722 341.906 92.4385 341.715 91.6269ZM329.602 93.501C328.314 93.9763 327.618 95.2706 327.956 96.7029C328.293 98.1352 329.439 98.7505 330.773 98.2581C331.417 98.0204 332.017 97.5918 332.422 96.9755L331.793 96.4292C331.492 96.8514 331.077 97.2121 330.617 97.3818C330.019 97.6025 329.353 97.5368 329.023 96.7759L332.291 95.5705L332.201 95.1889C331.898 93.6917 330.845 93.0426 329.602 93.501L329.602 93.501ZM329.805 94.3602C330.403 94.1396 330.907 94.3688 331.168 95.0511L328.867 95.8999C328.813 95.2453 329.115 94.6149 329.805 94.3602ZM354.14 87.0431L353.172 82.9373L352.206 83.2939L352.769 85.6809C352.345 85.3702 351.829 85.3012 351.231 85.5219C349.988 85.9803 349.258 87.3393 349.584 88.7238C349.911 90.1083 351.113 90.7543 352.356 90.296C353 90.0582 353.404 89.6499 353.579 89.1183L353.714 89.6912L354.68 89.3347L354.14 87.0431ZM350.597 88.3503C350.405 87.5387 350.754 86.6837 351.582 86.378C352.365 86.0894 353.063 86.5064 353.266 87.3657C353.457 88.1773 353.062 89.0493 352.28 89.3379C351.44 89.5957 350.788 89.1619 350.597 88.3503ZM318.292 100.268L317.752 97.9765L316.786 98.333L316.921 98.9058C316.497 98.5952 315.981 98.5261 315.383 98.7469C314.14 99.2052 313.41 100.564 313.736 101.949C314.063 103.333 315.265 103.979 316.508 103.521C317.152 103.283 317.556 102.875 317.731 102.343L317.866 102.916L318.832 102.56L318.292 100.268ZM314.703 101.592C314.512 100.781 314.86 99.9256 315.689 99.62C316.471 99.3314 317.169 99.7483 317.372 100.608C317.563 101.419 317.168 102.291 316.386 102.58C315.547 102.838 314.894 102.404 314.703 101.592Z" fill="white"/>
<path d="M317.735 73.4955C316.441 68.0053 317.778 62.2188 320.855 57.6587C317.508 56.4027 313.639 56.3254 309.773 57.7515C300.615 61.13 295.018 71.5495 297.257 81.0502C299.496 90.5507 308.716 95.504 317.873 92.1256C321.739 90.6995 324.956 88.0079 327.223 84.6805C322.672 82.9864 319.029 78.9857 317.735 73.4955Z" fill="#E51D37"/>
<path d="M350.867 61.2723C353.106 70.7728 347.509 81.1926 338.351 84.571C334.485 85.9971 330.616 85.9198 327.269 84.6636C330.392 80.0867 331.683 74.3172 330.389 68.827C329.096 63.3368 325.463 59.3838 320.901 57.6418C323.168 54.3148 326.385 51.623 330.251 50.197C339.408 46.8186 348.64 51.8194 350.867 61.2723L350.867 61.2723Z" fill="#F79E1B"/>
<path d="M50.1271 179.3L47.1131 166.511L51.0479 165.059L58.7591 173.869L58.9786 173.788L56.4519 163.066L58.7148 162.231L61.7287 175.02L57.7771 176.478L50.0659 167.669L49.8295 167.756L52.3562 178.478L50.1271 179.3ZM63.376 162.834C62.9144 163.005 62.5421 163.009 62.2591 162.846C61.9847 162.668 61.802 162.387 61.7112 162.001C61.6204 161.616 61.653 161.261 61.8091 160.937C61.9765 160.608 62.291 160.359 62.7525 160.189C63.2029 160.023 63.5639 160.023 63.8356 160.189C64.1186 160.351 64.3055 160.625 64.3963 161.011C64.4871 161.396 64.4502 161.759 64.2856 162.099C64.1295 162.423 63.8263 162.668 63.376 162.834ZM65.0249 173.804L63.2125 166.113L61.929 166.586L61.4996 164.764L65.1304 163.425L67.3723 172.938L65.0249 173.804ZM70.0776 171.94L67.0637 159.151L69.411 158.285L71.2648 166.151L73.7126 160.259L76.1612 159.355L73.9908 164.555L79.1461 168.595L76.4948 169.573L72.3726 166.257L71.3763 166.624L72.4249 171.074L70.0776 171.94ZM84.6895 166.911C83.6087 167.31 82.6431 167.419 81.7927 167.237C80.9396 167.044 80.2279 166.647 79.6577 166.045C79.0988 165.438 78.7202 164.715 78.5221 163.874L78.4354 163.506C78.2289 162.63 78.2346 161.745 78.4525 160.852C78.6817 159.955 79.1141 159.142 79.7498 158.412C80.3968 157.679 81.2437 157.119 82.2908 156.732C83.3265 156.35 84.2696 156.25 85.12 156.431C85.9817 156.608 86.6976 156.998 87.2678 157.6C87.8492 158.198 88.2432 158.935 88.4496 159.811L88.5363 160.179C88.7345 161.02 88.7246 161.887 88.5067 162.78C88.3001 163.669 87.8803 164.484 87.2474 165.225C86.6117 165.955 85.7591 166.517 84.6895 166.911ZM84.1982 164.827C85.0538 164.511 85.6408 163.99 85.959 163.263C86.2857 162.52 86.3472 161.717 86.1435 160.853C85.9399 159.988 85.5342 159.357 84.9264 158.959C84.3187 158.561 83.6039 158.514 82.7821 158.817C81.949 159.125 81.3634 159.652 81.0254 160.398C80.6875 161.145 80.6203 161.951 80.824 162.815C81.0277 163.679 81.4221 164.315 82.0073 164.721C82.601 165.111 83.3313 165.146 84.1982 164.827ZM91.7834 163.933L89.1988 152.965L88.0505 153.389L87.6211 151.567L91.1168 150.277L94.1307 163.067L91.7834 163.933ZM99.469 161.364C98.4558 161.738 97.5819 161.768 96.8473 161.455C96.124 161.138 95.6481 160.495 95.4197 159.525C95.1747 158.486 95.3547 157.588 95.9596 156.831C96.573 156.059 97.4933 155.447 98.7205 154.994L100.595 154.302L100.574 154.215C100.318 153.128 99.6612 152.781 98.603 153.171C98.3215 153.275 97.9851 153.405 97.5939 153.562C97.2026 153.719 96.807 153.884 96.4072 154.057C96.0159 154.214 95.6654 154.363 95.3557 154.502L94.8685 152.435C95.243 152.259 95.6921 152.061 96.2158 151.843C96.7507 151.62 97.2433 151.426 97.6936 151.259C99.1009 150.74 100.229 150.648 101.079 150.982C101.937 151.3 102.522 152.119 102.833 153.439L104.224 159.343L102.367 160.028L101.937 158.206C101.845 159.738 101.023 160.791 99.469 161.364ZM99.7189 159.386C100.034 159.27 100.319 159.102 100.573 158.881C100.824 158.649 101.005 158.353 101.116 157.995C101.236 157.621 101.247 157.172 101.148 156.65L100.938 155.756L99.0294 156.461C98.489 156.66 98.1055 156.954 97.8788 157.342C97.6607 157.714 97.6025 158.117 97.7043 158.549C97.8089 158.993 98.0336 159.297 98.3784 159.462C98.7317 159.611 99.1785 159.586 99.7189 159.386ZM113.001 156.105L110.503 145.505L106.94 146.82L106.424 144.63L115.948 141.116L116.464 143.306L112.901 144.621L115.399 155.22L113.001 156.105ZM123.735 152.507C122.947 152.798 122.221 152.913 121.558 152.853C120.907 152.788 120.329 152.595 119.825 152.274C119.329 151.936 118.911 151.512 118.571 151.003C118.242 150.49 118.006 149.929 117.863 149.322L117.784 148.989C117.636 148.358 117.588 147.716 117.642 147.061C117.707 146.402 117.876 145.769 118.149 145.16C118.433 144.548 118.83 144.001 119.341 143.521C119.849 143.029 120.48 142.643 121.235 142.365C122.225 142 123.106 141.922 123.878 142.133C124.647 142.331 125.287 142.736 125.798 143.348C126.318 143.943 126.677 144.661 126.875 145.502L127.081 146.378L120.191 148.92C120.446 149.639 120.824 150.153 121.326 150.463C121.838 150.769 122.483 150.779 123.26 150.492C123.823 150.285 124.257 149.997 124.562 149.631C124.876 149.249 125.042 148.863 125.061 148.476L127.222 147.678C127.251 148.734 126.958 149.699 126.344 150.573C125.73 151.447 124.86 152.092 123.735 152.507ZM121.709 144.38C121.045 144.625 120.561 145.013 120.258 145.544C119.955 146.075 119.827 146.699 119.874 147.418L124.484 145.718C124.234 145.073 123.873 144.629 123.399 144.385C122.937 144.137 122.374 144.135 121.709 144.38ZM133.422 148.895C132.161 149.36 131.105 149.451 130.255 149.168C129.414 148.869 128.861 148.235 128.596 147.267L130.707 146.488C130.809 146.818 131.05 147.06 131.428 147.212C131.815 147.349 132.346 147.292 133.022 147.043C133.574 146.84 133.994 146.57 134.282 146.236C134.57 145.901 134.671 145.552 134.586 145.19C134.512 144.875 134.325 144.677 134.024 144.598C133.733 144.502 133.274 144.531 132.65 144.686L131.819 144.897C130.755 145.162 129.89 145.152 129.223 144.864C128.567 144.573 128.143 144.019 127.95 143.201C127.799 142.559 127.828 141.958 128.039 141.397C128.247 140.826 128.6 140.327 129.1 139.902C129.608 139.46 130.222 139.107 130.942 138.841C132.068 138.426 133.042 138.352 133.864 138.62C134.683 138.876 135.225 139.489 135.49 140.458L133.379 141.236C133.268 140.922 133.039 140.702 132.691 140.576C132.355 140.446 131.911 140.483 131.359 140.687C130.864 140.87 130.504 141.11 130.281 141.408C130.057 141.707 129.983 142.013 130.057 142.329C130.129 142.632 130.291 142.826 130.543 142.911C130.796 142.996 131.182 142.974 131.702 142.845L132.534 142.634C133.631 142.356 134.548 142.354 135.286 142.628C136.023 142.902 136.492 143.465 136.693 144.318C136.842 144.948 136.802 145.56 136.575 146.151C136.356 146.727 135.978 147.254 135.442 147.731C134.906 148.208 134.232 148.596 133.422 148.895ZM139.411 146.362L136.827 135.394L135.678 135.818L135.249 133.996L138.745 132.706L141.759 145.496L139.411 146.362ZM147.097 143.793C146.084 144.167 145.21 144.197 144.475 143.884C143.752 143.567 143.276 142.924 143.048 141.954C142.803 140.915 142.983 140.017 143.587 139.26C144.201 138.488 145.121 137.876 146.348 137.423L148.223 136.731L148.202 136.644C147.946 135.558 147.289 135.21 146.231 135.6C145.949 135.704 145.613 135.834 145.222 135.991C144.83 136.149 144.435 136.313 144.035 136.486C143.644 136.643 143.293 136.792 142.984 136.931L142.496 134.864C142.871 134.688 143.32 134.49 143.844 134.272C144.379 134.049 144.871 133.855 145.321 133.689C146.729 133.169 147.857 133.077 148.707 133.411C149.565 133.729 150.15 134.548 150.461 135.868L151.852 141.772L149.994 142.457L149.565 140.635C149.473 142.167 148.651 143.22 147.097 143.793ZM147.347 141.816C147.662 141.699 147.947 141.531 148.201 141.31C148.452 141.078 148.633 140.782 148.744 140.424C148.864 140.05 148.875 139.601 148.776 139.079L148.566 138.186L146.657 138.89C146.117 139.089 145.733 139.383 145.507 139.771C145.289 140.144 145.23 140.546 145.332 140.978C145.437 141.422 145.661 141.726 146.006 141.891C146.36 142.04 146.806 142.015 147.347 141.816Z" fill="white"/>
<rect width="41.9048" height="27.9365" rx="5" transform="matrix(0.938191 -0.346117 0.22937 0.973339 60.7892 231.556)" fill="url(#paint2_radial_1913_3)"/>
<path fill-rule="evenodd" clip-rule="evenodd" d="M80.5103 224.575L77.8165 233.292C77.8165 233.292 81.0291 238.866 80.5377 244.84L86.7899 251.223L89.2743 241.617C89.2743 241.617 86.4804 237.82 86.5531 230.069C86.5531 230.069 80.5103 224.575 80.5103 224.575Z" stroke="#C7C7B6" stroke-width="1.3" stroke-linejoin="bevel"/>
<path d="M62.6045 239.259L77.8935 233.619" stroke="#C7C7B6" stroke-width="1.3" stroke-linejoin="bevel"/>
<path d="M86.1927 230.557L101.919 224.756" stroke="#C7C7B6" stroke-width="1.3" stroke-linejoin="bevel"/>
<path d="M65.1673 250.136L80.4564 244.495" stroke="#C7C7B6" stroke-width="1.3" stroke-linejoin="bevel"/>
<path d="M88.7557 241.433L104.482 235.632" stroke="#C7C7B6" stroke-width="1.3" stroke-linejoin="bevel"/>
<defs>
<linearGradient id="paint0_linear_1913_3" x1="70.3448" y1="-36.8921" x2="112.395" y2="290.643" gradientUnits="userSpaceOnUse">
<stop stop-color="#E23B51"/>
<stop offset="1" stop-color="#8A3B45"/>
</linearGradient>
<linearGradient id="paint1_linear_1913_3" x1="70.3448" y1="-36.8922" x2="112.396" y2="290.644" gradientUnits="userSpaceOnUse">
<stop stop-color="#E23B51"/>
<stop offset="1" stop-color="#8A3B45"/>
</linearGradient>
<radialGradient id="paint2_radial_1913_3" cx="0" cy="0" r="1" gradientUnits="userSpaceOnUse" gradientTransform="translate(24.0639 10.1763) rotate(141.302) scale(28.4063 28.1909)">
<stop stop-color="white"/>
<stop offset="1" stop-color="#DDDCDA"/>
</radialGradient>
</defs>
</svg>
