<svg width="35" height="35" viewBox="0 0 35 35" fill="none" xmlns="http://www.w3.org/2000/svg">
<path d="M29.1666 17.5V32.0833H5.83331V17.5" stroke="url(#paint0_linear_831_214)" stroke-width="2" stroke-linecap="round" stroke-linejoin="round"/>
<path d="M32.0834 10.2083H2.91669V17.4999H32.0834V10.2083Z" stroke="url(#paint1_linear_831_214)" stroke-width="2" stroke-linecap="round" stroke-linejoin="round"/>
<path d="M17.5 32.0833V10.2083" stroke="url(#paint2_linear_831_214)" stroke-width="2" stroke-linecap="round" stroke-linejoin="round"/>
<path d="M17.5 10.2084H10.9375C9.97059 10.2084 9.04325 9.8243 8.35953 9.14057C7.6758 8.45685 7.29169 7.52952 7.29169 6.56258C7.29169 5.59565 7.6758 4.66831 8.35953 3.98459C9.04325 3.30086 9.97059 2.91675 10.9375 2.91675C16.0417 2.91675 17.5 10.2084 17.5 10.2084Z" stroke="url(#paint3_linear_831_214)" stroke-width="2" stroke-linecap="round" stroke-linejoin="round"/>
<path d="M17.5 10.2084H24.0625C25.0294 10.2084 25.9568 9.8243 26.6405 9.14057C27.3242 8.45685 27.7083 7.52952 27.7083 6.56258C27.7083 5.59565 27.3242 4.66831 26.6405 3.98459C25.9568 3.30086 25.0294 2.91675 24.0625 2.91675C18.9583 2.91675 17.5 10.2084 17.5 10.2084Z" stroke="url(#paint4_linear_831_214)" stroke-width="2" stroke-linecap="round" stroke-linejoin="round"/>
<defs>
<linearGradient id="paint0_linear_831_214" x1="25.55" y1="19.4687" x2="17.4639" y2="34.3817" gradientUnits="userSpaceOnUse">
<stop stop-color="#EB3850"/>
<stop offset="1" stop-color="#CB162E"/>
</linearGradient>
<linearGradient id="paint1_linear_831_214" x1="27.5625" y1="11.1926" x2="25.5639" y2="20.4078" gradientUnits="userSpaceOnUse">
<stop stop-color="#EB3850"/>
<stop offset="1" stop-color="#CB162E"/>
</linearGradient>
<linearGradient id="paint2_linear_831_214" x1="18.345" y1="13.1614" x2="16.824" y2="13.2415" gradientUnits="userSpaceOnUse">
<stop stop-color="#EB3850"/>
<stop offset="1" stop-color="#CB162E"/>
</linearGradient>
<linearGradient id="paint3_linear_831_214" x1="15.9177" y1="3.90112" x2="11.5976" y2="10.8727" gradientUnits="userSpaceOnUse">
<stop stop-color="#EB3850"/>
<stop offset="1" stop-color="#CB162E"/>
</linearGradient>
<linearGradient id="paint4_linear_831_214" x1="26.126" y1="3.90112" x2="21.8059" y2="10.8727" gradientUnits="userSpaceOnUse">
<stop stop-color="#EB3850"/>
<stop offset="1" stop-color="#CB162E"/>
</linearGradient>
</defs>
</svg>
