<svg width="35" height="35" viewBox="0 0 35 35" fill="none" xmlns="http://www.w3.org/2000/svg">
<path d="M13.125 32.0834C13.9304 32.0834 14.5833 31.4305 14.5833 30.6251C14.5833 29.8197 13.9304 29.1667 13.125 29.1667C12.3196 29.1667 11.6667 29.8197 11.6667 30.6251C11.6667 31.4305 12.3196 32.0834 13.125 32.0834Z" stroke="url(#paint0_linear_831_201)" stroke-width="2" stroke-linecap="round" stroke-linejoin="round"/>
<path d="M29.1667 32.0834C29.9721 32.0834 30.625 31.4305 30.625 30.6251C30.625 29.8197 29.9721 29.1667 29.1667 29.1667C28.3613 29.1667 27.7083 29.8197 27.7083 30.6251C27.7083 31.4305 28.3613 32.0834 29.1667 32.0834Z" stroke="url(#paint1_linear_831_201)" stroke-width="2" stroke-linecap="round" stroke-linejoin="round"/>
<path d="M1.45834 1.45825H7.29167L11.2 20.9853C11.3334 21.6567 11.6986 22.2599 12.2318 22.6891C12.7651 23.1183 13.4323 23.3464 14.1167 23.3333H28.2917C28.9761 23.3464 29.6433 23.1183 30.1765 22.6891C30.7097 22.2599 31.075 21.6567 31.2083 20.9853L33.5417 8.74992H8.75" stroke="url(#paint2_linear_831_201)" stroke-width="2" stroke-linecap="round" stroke-linejoin="round"/>
<defs>
<linearGradient id="paint0_linear_831_201" x1="14.1312" y1="29.5605" x2="12.2208" y2="31.7626" gradientUnits="userSpaceOnUse">
<stop stop-color="#EB3850"/>
<stop offset="1" stop-color="#CB162E"/>
</linearGradient>
<linearGradient id="paint1_linear_831_201" x1="30.1729" y1="29.5605" x2="28.2625" y2="31.7626" gradientUnits="userSpaceOnUse">
<stop stop-color="#EB3850"/>
<stop offset="1" stop-color="#CB162E"/>
</linearGradient>
<linearGradient id="paint2_linear_831_201" x1="28.5688" y1="4.41145" x2="15.8843" y2="25.855" gradientUnits="userSpaceOnUse">
<stop stop-color="#EB3850"/>
<stop offset="1" stop-color="#CB162E"/>
</linearGradient>
</defs>
</svg>
