<svg width="35" height="35" viewBox="0 0 35 35" fill="none" xmlns="http://www.w3.org/2000/svg">
<path d="M17.5 32.0833C25.5541 32.0833 32.0833 25.5541 32.0833 17.5C32.0833 9.44581 25.5541 2.91663 17.5 2.91663C9.44584 2.91663 2.91666 9.44581 2.91666 17.5C2.91666 25.5541 9.44584 32.0833 17.5 32.0833Z" stroke="url(#paint0_linear_829_16)" stroke-width="2" stroke-linecap="round" stroke-linejoin="round"/>
<path d="M11.6667 20.4166C11.6667 20.4166 13.8542 23.3333 17.5 23.3333C21.1458 23.3333 23.3333 20.4166 23.3333 20.4166" stroke="url(#paint1_linear_829_16)" stroke-width="2" stroke-linecap="round" stroke-linejoin="round"/>
<path d="M13.125 13.125H13.1396" stroke="url(#paint2_linear_829_16)" stroke-width="2" stroke-linecap="round" stroke-linejoin="round"/>
<path d="M21.875 13.125H21.8896" stroke="url(#paint3_linear_829_16)" stroke-width="2" stroke-linecap="round" stroke-linejoin="round"/>
<defs>
<linearGradient id="paint0_linear_829_16" x1="27.5625" y1="6.85413" x2="8.45832" y2="28.875" gradientUnits="userSpaceOnUse">
<stop stop-color="#EB3850"/>
<stop offset="1" stop-color="#CB162E"/>
</linearGradient>
<linearGradient id="paint1_linear_829_16" x1="21.525" y1="20.8104" x2="20.7255" y2="24.4964" gradientUnits="userSpaceOnUse">
<stop stop-color="#EB3850"/>
<stop offset="1" stop-color="#CB162E"/>
</linearGradient>
<linearGradient id="paint2_linear_829_16" x1="13.1373" y1="13.26" x2="13.1151" y2="13.2604" gradientUnits="userSpaceOnUse">
<stop stop-color="#EB3850"/>
<stop offset="1" stop-color="#CB162E"/>
</linearGradient>
<linearGradient id="paint3_linear_829_16" x1="21.8873" y1="13.26" x2="21.8651" y2="13.2604" gradientUnits="userSpaceOnUse">
<stop stop-color="#EB3850"/>
<stop offset="1" stop-color="#CB162E"/>
</linearGradient>
</defs>
</svg>
