<svg width="152" height="182" viewBox="0 0 152 182" fill="none" xmlns="http://www.w3.org/2000/svg">
<g filter="url(#filter0_dd_1123_415)">
<path fill-rule="evenodd" clip-rule="evenodd" d="M138.682 15.6085C138.682 15.1572 138.411 14.052 137.562 12.5795C136.742 11.1575 135.456 9.52318 133.618 8.01256C129.968 5.01337 124.078 2.44898 115.192 3.10261C99.6353 4.24684 87.057 9.72889 77.9346 17.1029C87.2498 25.4245 92.7472 35.7341 93.6923 45.3891C94.8769 43.2727 96.367 41.2908 98.0785 39.5358C102.518 34.9833 108.607 31.7947 115.082 31.7947H138.682V15.6085ZM93.8387 54.0308C94.422 49.6424 96.7658 45.1788 100.226 41.6303C104.238 37.5165 109.592 34.7947 115.082 34.7947H140.182H141.682V33.2947V15.6085C141.682 14.4017 141.128 12.7576 140.161 11.0812C139.166 9.35428 137.646 7.44021 135.522 5.69478C131.248 2.18187 124.587 -0.596576 114.972 0.110692C98.6473 1.31142 85.2915 7.16784 75.61 15.1324C65.9669 7.37525 52.7759 1.69541 36.7104 0.516085C27.0954 -0.189729 20.4355 2.58293 16.1606 6.08897C14.0365 7.83103 12.5169 9.74152 11.5212 11.4654C10.5546 13.1387 10 14.7806 10 15.9865V33.638V35.138H11.5H36.6006C42.0914 35.138 47.446 37.855 51.4576 41.9604C54.9198 45.5036 57.2637 49.9605 57.8453 54.3411V153.413C57.8453 155.637 58.3489 157.653 59.7387 159.103C60.0363 159.413 60.3624 159.686 60.7149 159.922C62.043 160.866 63.7659 161.273 65.7616 161.273H86.0636C88.5075 161.273 90.5424 160.663 91.9442 159.203C93.3347 157.754 93.8387 155.742 93.8387 153.521V54.0308ZM57.9425 45.6219C56.7655 43.541 55.2921 41.5921 53.6033 39.8637C49.1632 35.3198 43.0749 32.138 36.6006 32.138H13V15.9865C13 15.5375 13.2701 14.4354 14.1189 12.966C14.9385 11.5471 16.2248 9.91622 18.0631 8.40861C21.7128 5.41532 27.6033 2.85562 36.4908 3.50803C51.7991 4.63177 64.2229 9.94711 73.308 17.1281C64.0849 25.5554 58.7162 35.9446 57.9425 45.6219ZM62.416 157.448C62.2767 157.347 62.1537 157.238 62.0449 157.125C61.4053 156.459 60.9865 155.345 60.9865 153.521V56.4378C60.9865 55.6746 60.9384 54.9101 60.8453 54.1476V48.0332C60.8453 38.588 66.0043 27.7557 75.6323 19.069C85.5301 27.8002 90.8387 38.7869 90.8387 48.3475V53.8371C90.745 54.6036 90.6966 55.3722 90.6966 56.1394V153.413C90.6966 155.242 90.2774 156.359 89.6371 157.027C89.0086 157.683 87.9063 158.177 85.9216 158.177H65.6202C64.09 158.177 63.0844 157.884 62.416 157.448Z" fill="white"/>
</g>
<defs>
<filter id="filter0_dd_1123_415" x="0" y="0" width="151.682" height="181.273" filterUnits="userSpaceOnUse" color-interpolation-filters="sRGB">
<feFlood flood-opacity="0" result="BackgroundImageFix"/>
<feColorMatrix in="SourceAlpha" type="matrix" values="0 0 0 0 0 0 0 0 0 0 0 0 0 0 0 0 0 0 127 0" result="hardAlpha"/>
<feOffset dy="10"/>
<feGaussianBlur stdDeviation="5"/>
<feComposite in2="hardAlpha" operator="out"/>
<feColorMatrix type="matrix" values="0 0 0 0 0.65098 0 0 0 0 0.65098 0 0 0 0 0.654902 0 0 0 0.3 0"/>
<feBlend mode="normal" in2="BackgroundImageFix" result="effect1_dropShadow_1123_415"/>
<feColorMatrix in="SourceAlpha" type="matrix" values="0 0 0 0 0 0 0 0 0 0 0 0 0 0 0 0 0 0 127 0" result="hardAlpha"/>
<feOffset dy="4"/>
<feGaussianBlur stdDeviation="2"/>
<feComposite in2="hardAlpha" operator="out"/>
<feColorMatrix type="matrix" values="0 0 0 0 0 0 0 0 0 0 0 0 0 0 0 0 0 0 0.25 0"/>
<feBlend mode="normal" in2="effect1_dropShadow_1123_415" result="effect2_dropShadow_1123_415"/>
<feBlend mode="normal" in="SourceGraphic" in2="effect2_dropShadow_1123_415" result="shape"/>
</filter>
</defs>
</svg>
